<svg viewBox="0 0 473 473" fill="none" xmlns="http://www.w3.org/2000/svg">
<path d="M100.611 254.5C110.337 254.5 118.222 246.217 118.222 236C118.222 225.783 110.337 217.5 100.611 217.5C90.8848 217.5 83 225.783 83 236C83 246.217 90.8848 254.5 100.611 254.5Z" fill="white"/>
<path d="M383.446 217.5H170C160.857 217.5 153.445 225.286 153.445 234.89V237.11C153.445 246.714 160.857 254.5 170 254.5H383.446C392.589 254.5 400.001 246.714 400.001 237.11V234.89C400.001 225.286 392.589 217.5 383.446 217.5Z" fill="white"/>
<path d="M383.446 310H99.5544C90.4117 310 83 317.786 83 327.39V329.61C83 339.214 90.4117 347 99.5544 347H383.446C392.588 347 400 339.214 400 329.61V327.39C400 317.786 392.588 310 383.446 310Z" fill="white"/>
<path d="M383.446 125H99.5544C90.4117 125 83 132.786 83 142.39V144.61C83 154.214 90.4117 162 99.5544 162H383.446C392.588 162 400 154.214 400 144.61V142.39C400 132.786 392.588 125 383.446 125Z" fill="white"/>
<circle cx="236.5" cy="236.5" r="230" stroke="white" stroke-width="13"/>
</svg>
