<svg width="338" height="337" viewBox="0 0 338 337" fill="none" xmlns="http://www.w3.org/2000/svg">
<path fill-rule="evenodd" clip-rule="evenodd" d="M317.117 168.5C317.117 250.514 250.631 317 168.617 317C86.6029 317 20.1172 250.514 20.1172 168.5C20.1172 86.4857 86.6029 20 168.617 20C250.631 20 317.117 86.4857 317.117 168.5ZM337.117 168.5C337.117 261.56 261.677 337 168.617 337C75.5572 337 0.117188 261.56 0.117188 168.5C0.117188 75.44 75.5572 0 168.617 0C261.677 0 337.117 75.44 337.117 168.5ZM108.643 78.9237L131.467 51.4068L228.592 168.5L131.467 285.593L108.643 258.076L182.781 168.5L108.643 78.9237Z" fill="white"/>
</svg>
