<svg width="337" height="337" viewBox="0 0 337 337" fill="none" xmlns="http://www.w3.org/2000/svg">
<path fill-rule="evenodd" clip-rule="evenodd" d="M317 168.5C317 250.514 250.514 317 168.5 317C86.4857 317 20 250.514 20 168.5C20 86.4857 86.4857 20 168.5 20C250.514 20 317 86.4857 317 168.5ZM337 168.5C337 261.56 261.56 337 168.5 337C75.44 337 0 261.56 0 168.5C0 75.44 75.44 0 168.5 0C261.56 0 337 75.44 337 168.5ZM226.008 258.324L203.387 285.191L109.923 167.444L206.182 53.1163L228.146 80.7869L154.666 168.251L226.008 258.324Z" fill="white"/>
</svg>
